<?xml version="1.0" encoding="UTF-8" standalone="no"?>
<svg
   width="255.89558"
   height="324.21048"
   viewBox="0 0 255.89558 324.21048"
   version="1.1"
   preserveAspectRatio="xMidYMid"
   id="svg18"
   sodipodi:docname="1857cca670852c50a338b19754a1998d.svg"
   xmlns:inkscape="http://www.inkscape.org/namespaces/inkscape"
   xmlns:sodipodi="http://sodipodi.sourceforge.net/DTD/sodipodi-0.dtd"
   xmlns:xlink="http://www.w3.org/1999/xlink"
   xmlns="http://www.w3.org/2000/svg"
   xmlns:svg="http://www.w3.org/2000/svg">
  <sodipodi:namedview
     id="namedview20"
     pagecolor="#ffffff"
     bordercolor="#666666"
     borderopacity="1.0"
     inkscape:pageshadow="2"
     inkscape:pageopacity="0.0"
     inkscape:pagecheckerboard="0" />
  <defs
     id="defs3">
    <path
       d="M 244.82836,64.429025 139.05099,3.3883917 c -6.86212,-3.97474785 -15.32629,-3.97474785 -22.18841,0 L 11.067214,64.429025 C 4.2167009,68.414097 0,75.740885 0,83.666182 V 205.83742 c 0.00604378,7.90997 4.2225467,15.21857 11.067214,19.18318 l 52.924676,30.59229 v 62.3723 c 0.0092,2.37419 1.28185,4.56389 3.340269,5.74701 2.058419,1.18313 4.5911,1.18067 6.647217,-0.006 L 244.93634,225.07458 c 6.85281,-3.95647 11.07228,-11.27023 11.06722,-19.18317 V 83.648186 c -0.0413,-7.93809 -4.29676,-15.256572 -11.1752,-19.219161 z"
       id="path-1" />
  </defs>
  <g
     id="g16"
     transform="translate(0,-0.40733082)">
    <mask
       id="mask-2"
       fill="#ffffff">
      <use
         xlink:href="#path-1"
         id="use5"
         x="0"
         y="0"
         width="100%"
         height="100%" />
    </mask>
    <polygon
       fill="#ef6c00"
       mask="url(#mask-2)"
       points="0,70.871403 0,218.61421 63.99189,255.52292 63.99189,329.41231 255.89558,218.61421 255.89558,70.871403 127.98378,144.74281 "
       id="polygon8" />
    <polygon
       fill="#ff9800"
       mask="url(#mask-2)"
       points="127.98378,-3 255.89558,70.871403 127.98378,144.74281 2.8421709e-14,70.871403 "
       id="polygon10" />
    <polygon
       fill="#ff9800"
       mask="url(#mask-2)"
       points="2.8421709e-14,70.871403 127.98378,144.74281 255.89558,70.871403 252.89033,69.089851 125.71635,142.49337 0.80979613,70.385525 "
       id="polygon12" />
    <polygon
       fill="#ff9800"
       mask="url(#mask-2)"
       points="0.80979613,71.303294 2.8421709e-14,71.789172 127.98378,145.66057 127.98378,144.74281 "
       id="polygon14" />
  </g>
</svg>
